<?xml version="1.0" standalone="no"?>
<!DOCTYPE svg PUBLIC "-//W3C//DTD SVG 20010904//EN"
 "http://www.w3.org/TR/2001/REC-SVG-20010904/DTD/svg10.dtd">
<svg version="1.0" xmlns="http://www.w3.org/2000/svg"
 width="150.000000pt" height="150.000000pt" viewBox="0 0 150.000000 150.000000"
 preserveAspectRatio="xMidYMid meet">

<g transform="translate(0.000000,150.000000) scale(0.100000,-0.100000)"
fill="#000000" stroke="none">
<path d="M577 1356 c-37 -13 -90 -39 -118 -56 -103 -67 -201 -204 -228 -320
-16 -69 -13 -209 5 -271 56 -186 209 -338 384 -378 58 -13 202 -13 260 0 88
20 172 69 246 143 113 112 157 219 158 376 0 143 -41 252 -136 355 -112 123
-232 175 -402 175 -81 0 -115 -5 -169 -24z m113 -256 c0 -94 -15 -105 -44 -35
-10 25 -31 59 -47 75 l-29 29 47 4 c27 2 54 4 61 5 9 2 12 -20 12 -78z m468 3
c-2 -42 -7 -78 -13 -79 -5 -2 -21 20 -34 48 -13 28 -35 60 -48 72 l-25 21 49
6 c26 3 54 7 61 7 10 2 12 -17 10 -75z m-715 -27 c16 -24 27 -33 162 -141 124
-100 170 -180 135 -235 -8 -12 -10 -10 -10 11 0 54 -67 133 -207 243 -110 86
-139 133 -116 193 6 14 8 12 14 -14 3 -18 14 -43 22 -57z m474 -5 c11 -14 48
-48 84 -76 35 -27 99 -84 142 -127 l77 -76 0 -69 c-1 -37 -6 -81 -13 -96 -11
-26 -12 -21 -12 46 0 68 -3 79 -31 119 -17 23 -64 70 -104 103 -173 141 -210
189 -187 245 10 25 10 25 17 -9 5 -18 17 -45 27 -60z m-543 -53 c10 -15 55
-59 99 -97 139 -118 217 -210 217 -255 0 -15 -9 -8 -34 29 -19 28 -42 57 -52
65 -145 117 -242 204 -256 228 -18 31 -24 93 -11 106 5 4 11 -5 14 -21 3 -16
14 -41 23 -55z m442 74 c-2 -4 3 -26 13 -48 12 -27 54 -71 130 -137 118 -104
185 -183 197 -232 6 -28 4 -27 -26 15 -38 51 -48 60 -185 175 -106 88 -138
123 -149 168 -6 25 7 67 20 67 3 0 3 -4 0 -8z m-417 -322 c-17 -32 -20 -53
-17 -96 5 -61 26 -96 79 -133 29 -20 30 -22 9 -16 -82 23 -136 101 -128 186 5
50 37 99 65 99 9 0 7 -11 -8 -40z m470 5 c-45 -76 -19 -186 55 -230 22 -14 34
-25 26 -25 -22 0 -91 47 -114 77 -48 65 -21 213 39 213 11 0 10 -8 -6 -35z
m-81 -38 c-6 -31 -6 -63 0 -92 5 -25 8 -45 6 -45 -8 0 -34 74 -34 96 0 21 30
97 36 91 1 -1 -2 -24 -8 -50z m-463 -56 c0 -50 -3 -87 -6 -83 -16 17 -29 82
-23 108 6 27 22 64 27 64 1 0 2 -40 2 -89z m412 -53 c-3 -8 -6 -5 -6 6 -1 11
2 17 5 13 3 -3 4 -12 1 -19z"/>
</g>
</svg>
